# xmcd
#
# Track frame offsets:
#	150
#	15145
#	29341
#	46712
#	62808
#	80236
#	94945
#	110506
#	124569
#	139561
#	155716
#
# Disc length: 2179
#
# Revision: 1
# Processed by: cddbd v1.5.1PL0 Copyright (c) Steve Scherf et al.
# Submitted via: VisiTrax 2.9.5.180 - For more info visit www.synapsa.com
# Normalized: r0:DSETVAR1
#
DISCID=8608810b
DTITLE=Various Artist - CDX 254 December 2000
DYEAR=2000
DGENRE=
TTITLE0=Len Doolin - Breakin' what's left of my heart
TTITLE1=Cledus T Judd - How do you milk a cow
TTITLE2=Alison Krauss - Maybe
TTITLE3=Pam Tillis - Please
TTITLE4=Allison Moorer - Think it over
TTITLE5=Garth Brooks - Wild horses
TTITLE6=John Colbert - Under the influence
TTITLE7=Michael Clay/Georgia Middleman - What you came here for
TTITLE8=Ray Driskoll - Ray Driskoll's christmas ball
TTITLE9=Craig Morgan - The kid in me
TTITLE10=Marshall Dyllon - The star spangled banner
EXTD=
EXTT0=
EXTT1=
EXTT2=
EXTT3=
EXTT4=
EXTT5=
EXTT6=
EXTT7=
EXTT8=
EXTT9=
EXTT10=
PLAYORDER=
